<?xml version="1.0" encoding="utf-8"?>
<!-- Generator: Adobe Illustrator 21.1.0, SVG Export Plug-In . SVG Version: 6.00 Build 0)  -->
<svg version="1.1" id="Layer_1" xmlns="http://www.w3.org/2000/svg" xmlns:xlink="http://www.w3.org/1999/xlink" x="0px" y="0px"
	 viewBox="0 0 70 16" style="enable-background:new 0 0 70 16;" xml:space="preserve">
<style type="text/css">
	.st0{fill:#FFFFFF;}
</style>
<title>signature-logo</title>
<desc>Created with Sketch.</desc>
<g id="Testes">
	<g id="Assinatura-6" transform="translate(-160.000000, -154.000000)">
		<g id="signature-logo" transform="translate(160.000000, 154.000000)">
			<path id="s" class="st0" d="M69.7,8.5c-0.1-0.2-0.3-0.5-0.4-0.6c-0.2-0.2-0.4-0.3-0.6-0.4c-0.2-0.1-0.4-0.2-0.7-0.3
				C67.8,7,67.6,7,67.4,6.9c-0.2-0.1-0.4-0.1-0.6-0.2c-0.2-0.1-0.3-0.1-0.4-0.2c-0.1-0.1-0.1-0.2-0.1-0.3c0-0.2,0.1-0.3,0.2-0.4
				c0.1-0.1,0.3-0.1,0.6-0.1c0.2,0,0.4,0,0.5,0.1c0.2,0,0.3,0.1,0.4,0.2L68.4,6c0.2,0.1,0.5,0.1,0.7,0c0.1-0.1,0.2-0.1,0.2-0.2
				l0.4-0.6c0.1-0.2,0.1-0.4-0.1-0.6c-0.1-0.1-0.2-0.2-0.3-0.2c-0.2-0.1-0.4-0.2-0.6-0.3c-0.2-0.1-0.5-0.2-0.8-0.2
				c-0.3-0.1-0.5-0.1-0.8-0.1c-0.5,0-1,0.1-1.4,0.2c-0.4,0.1-0.7,0.3-1,0.6c-0.3,0.2-0.5,0.5-0.6,0.8c-0.1,0.3-0.2,0.7-0.2,1
				c0,0.4,0.1,0.7,0.2,1c0.1,0.3,0.3,0.5,0.4,0.7c0.2,0.2,0.4,0.3,0.6,0.5c0.2,0.1,0.4,0.2,0.7,0.3C66,8.9,66.2,8.9,66.5,9
				c0.2,0.1,0.4,0.1,0.6,0.2c0.2,0.1,0.3,0.1,0.4,0.2c0.1,0.1,0.1,0.2,0.1,0.3c0,0.1,0,0.1,0,0.2c0,0.1-0.1,0.1-0.1,0.2
				c-0.1,0.1-0.1,0.1-0.3,0.1c-0.1,0-0.3,0.1-0.4,0.1c-0.2,0-0.4,0-0.6-0.1c-0.2-0.1-0.3-0.1-0.4-0.2l-0.3-0.2
				c-0.1-0.1-0.3-0.1-0.4-0.1c-0.2,0-0.3,0-0.4,0.1c-0.1,0.1-0.2,0.2-0.3,0.3l-0.4,0.7c-0.1,0.2-0.1,0.4,0.1,0.5
				c0.1,0.1,0.2,0.2,0.4,0.2c0.2,0.1,0.5,0.2,0.7,0.3c0.2,0.1,0.5,0.2,0.8,0.2c0.3,0.1,0.5,0.1,0.8,0.1c0.5,0,1-0.1,1.4-0.2
				c0.4-0.1,0.8-0.3,1.1-0.6c0.3-0.3,0.5-0.6,0.7-0.9c0.1-0.3,0.2-0.7,0.2-1.1C69.9,9,69.9,8.7,69.7,8.5"/>
			<path id="a" class="st0" d="M58.5,9.1C58.6,9,58.8,9,59.1,8.9c0.3-0.1,0.6-0.1,1-0.1v0.9c-0.2,0.2-0.4,0.4-0.6,0.5
				c-0.2,0.1-0.5,0.1-0.7,0.1c-0.3,0-0.4,0-0.6-0.1c-0.1-0.1-0.2-0.2-0.2-0.5c0-0.1,0-0.2,0.1-0.3C58.2,9.3,58.3,9.2,58.5,9.1
				 M61.8,4.6c-0.3-0.3-0.6-0.5-1-0.7c-0.4-0.2-0.8-0.2-1.3-0.2c-0.7,0-1.3,0.1-1.9,0.3c-0.5,0.2-1,0.5-1.4,0.8
				C56,4.9,56,5.2,56.1,5.3l0.3,0.5c0.1,0.1,0.2,0.2,0.3,0.3c0.1,0.1,0.3,0.1,0.5,0.1c0.2,0,0.4,0,0.5-0.1C57.8,6.2,58,6.1,58.1,6
				c0.1-0.1,0.3-0.1,0.4-0.2c0.2-0.1,0.4-0.1,0.6-0.1c0.3,0,0.5,0.1,0.7,0.3C60,6.2,60.1,6.5,60.1,7v0.2c-0.8,0-1.6,0.1-2.1,0.2
				c-0.6,0.2-1.1,0.4-1.4,0.6c-0.4,0.3-0.6,0.5-0.8,0.9c-0.1,0.3-0.2,0.6-0.2,0.9c0,0.4,0.1,0.7,0.2,1c0.1,0.3,0.3,0.5,0.5,0.7
				c0.2,0.2,0.5,0.3,0.8,0.4c0.3,0.1,0.6,0.1,1,0.1c0.3,0,0.5,0,0.7-0.1c0.2,0,0.4-0.1,0.6-0.2c0.2-0.1,0.4-0.2,0.6-0.3
				c0.1-0.1,0.3-0.2,0.4-0.3l0.1,0.3c0.1,0.2,0.2,0.4,0.3,0.4C61,12,61.2,12,61.4,12h0.8c0.2,0,0.4-0.2,0.4-0.4V6.9
				c0-0.5-0.1-0.9-0.2-1.3C62.3,5.3,62,4.9,61.8,4.6"/>
			<g id="j" transform="translate(50.365854, 0.000000)">
				<path id="Fill-15" class="st0" d="M3.7,3.9H1.8C1.6,3.9,1.5,4,1.5,4.2v8.2c0,0.2,0,0.4,0,0.5c0,0.1-0.1,0.2-0.1,0.3
					c-0.1,0.1-0.1,0.1-0.2,0.1c-0.1,0-0.2,0-0.4,0c-0.2,0-0.4,0-0.4,0.1c-0.1,0.1-0.1,0.2-0.1,0.3L0,14.8c0,0.2,0.1,0.3,0.2,0.3
					c0.1,0,0.2,0.1,0.4,0.1c0.2,0,0.3,0,0.5,0c0.5,0,1-0.1,1.3-0.2c0.4-0.1,0.7-0.4,0.9-0.6c0.2-0.3,0.4-0.6,0.5-0.9
					C4,13.1,4,12.8,4,12.4V4.2C4,4,3.9,3.9,3.7,3.9"/>
				<path id="Fill-25" class="st0" d="M2.8,2.5C4,2.5,4,2.5,4,1.3C4,0.6,3.5,0,2.8,0S1.5,0.6,1.5,1.3C1.5,2.5,1.5,2.5,2.8,2.5"/>
			</g>
			<path id="n" class="st0" d="M49.5,4.6C49.3,4.3,49,4.1,48.6,4c-0.3-0.2-0.7-0.2-1.2-0.2c-0.3,0-0.5,0-0.7,0.1
				c-0.2,0.1-0.4,0.1-0.6,0.2c-0.2,0.1-0.4,0.2-0.5,0.3c-0.1,0.1-0.2,0.2-0.3,0.3l-0.1-0.3c0-0.2-0.1-0.3-0.3-0.4
				c-0.1-0.1-0.3-0.1-0.4-0.1h-1.1c-0.2,0-0.4,0.2-0.4,0.4v7.3c0,0.2,0.2,0.4,0.4,0.4H45c0.3,0,0.5-0.2,0.5-0.5V6.3
				c0.2-0.2,0.4-0.3,0.6-0.4c0.2-0.1,0.4-0.2,0.7-0.2c0.3,0,0.5,0.1,0.7,0.3c0.2,0.2,0.2,0.5,0.2,0.8v4.7c0,0.3,0.2,0.5,0.4,0.5h1.6
				c0.3,0,0.5-0.3,0.5-0.6V6.9c0-0.4-0.1-0.9-0.2-1.2C49.9,5.2,49.7,4.9,49.5,4.6"/>
			<g id="i" transform="translate(38.414634, 0.000000)">
				<path id="Fill-11" class="st0" d="M2.3,3.9H0.4C0.2,3.9,0.1,4,0.1,4.2v7.5c0,0.2,0.1,0.3,0.3,0.3h1.9c0.2,0,0.3-0.2,0.3-0.3V4.2
					C2.6,4,2.5,3.9,2.3,3.9"/>
				<path id="Fill-22" class="st0" d="M1.4,2.5c1.3,0,1.3,0,1.3-1.2C2.7,0.6,2.1,0,1.4,0S0.1,0.6,0.1,1.3C0.1,2.5,0.1,2.5,1.4,2.5"
					/>
			</g>
			<path id="N" class="st0" d="M36.4,0.6h-1.8c-0.2,0-0.3,0.2-0.3,0.4v5.7c0,0.2,0,0.4,0,0.6c0,0.1,0,0.1,0,0.2l-4.6-6.4
				c-0.1-0.1-0.1-0.2-0.2-0.2c-0.1-0.1-0.1-0.1-0.2-0.1c-0.1,0-0.1-0.1-0.2-0.1c-0.1,0-0.2,0-0.3,0h-1c-0.3,0-0.5,0.2-0.5,0.5v10.5
				c0,0.2,0.2,0.4,0.4,0.4h1.6c0.3,0,0.5-0.2,0.5-0.5V5.9c0-0.2,0-0.3,0-0.5c0-0.1,0-0.1,0-0.2l4.6,6.3c0.1,0.2,0.3,0.3,0.4,0.4
				c0.1,0.1,0.3,0.1,0.5,0.1h1c0.2,0,0.4-0.2,0.4-0.5V1C36.7,0.8,36.6,0.6,36.4,0.6"/>
			<path id="t" class="st0" d="M24.7,10.1c-0.1-0.1-0.1-0.1-0.2-0.2c-0.1,0-0.1-0.1-0.2-0.1c-0.1,0-0.1,0-0.2,0c0,0-0.1,0-0.1,0.1
				c0,0-0.1,0-0.1,0.1c0,0-0.1,0-0.2,0c-0.1,0-0.2,0-0.3-0.1c-0.1-0.1-0.1-0.2-0.1-0.4V5.7h1.3c0.3,0,0.5-0.2,0.5-0.6V4.3
				c0-0.2-0.2-0.4-0.4-0.4h-1.5V1.5H22c-0.4,0-0.6,0.2-0.6,0.5l-0.4,1.9l-1.3,0.2v1c0,0.2,0.1,0.3,0.2,0.4c0.1,0.1,0.2,0.2,0.4,0.2
				h0.5v4c0,0.4,0.1,0.7,0.2,1c0.1,0.3,0.3,0.6,0.5,0.8c0.2,0.2,0.5,0.4,0.8,0.5c0.3,0.1,0.6,0.2,1,0.2c0.4,0,0.8-0.1,1.2-0.2
				c0.3-0.1,0.5-0.2,0.8-0.4c0.1-0.1,0.2-0.2,0.2-0.3c0-0.1,0-0.2-0.1-0.3L24.7,10.1z"/>
			<path id="e" class="st0" d="M13.8,6.9C13.9,6.5,14,6.2,14.2,6c0.2-0.2,0.5-0.4,1-0.4c0.2,0,0.4,0,0.6,0.1
				c0.2,0.1,0.3,0.2,0.4,0.3c0.1,0.1,0.2,0.3,0.2,0.4c0,0.1,0.1,0.3,0.1,0.4H13.8z M17.7,4.7C17.4,4.4,17,4.1,16.6,4
				c-0.4-0.2-0.9-0.3-1.4-0.3c-0.6,0-1.2,0.1-1.6,0.3c-0.5,0.2-0.9,0.5-1.2,0.9c-0.3,0.4-0.6,0.8-0.8,1.3c-0.2,0.5-0.3,1-0.3,1.6
				c0,0.7,0.1,1.4,0.3,1.9c0.2,0.5,0.5,1,0.9,1.4c0.4,0.4,0.8,0.6,1.3,0.8c0.5,0.2,1,0.3,1.6,0.3c0.3,0,0.6,0,0.8-0.1
				c0.3,0,0.6-0.1,0.9-0.2c0.3-0.1,0.6-0.2,0.9-0.4c0.2-0.1,0.4-0.3,0.6-0.5c0.2-0.2,0.2-0.5,0-0.7L18,9.7c-0.1-0.2-0.3-0.3-0.5-0.3
				c-0.2,0-0.3,0-0.5,0.1c-0.1,0.1-0.3,0.1-0.4,0.2c-0.1,0.1-0.3,0.2-0.5,0.2c-0.2,0.1-0.4,0.1-0.7,0.1c-0.5,0-0.9-0.1-1.2-0.4
				C14,9.5,13.9,9,13.8,8.5h4.3c0.1,0,0.2,0,0.3,0c0.1,0,0.2-0.1,0.2-0.2c0-0.1,0.1-0.2,0.1-0.3c0-0.1,0-0.3,0-0.5
				c0-0.6-0.1-1.1-0.3-1.6C18.3,5.4,18,5,17.7,4.7L17.7,4.7z"/>
			<path id="G" class="st0" d="M9.5,6H6.4C6.1,6,5.9,6.3,5.9,6.6v1C5.9,7.7,5.9,7.9,6,8c0.1,0.1,0.3,0.2,0.5,0.2h1v1.5
				C7.2,9.7,7,9.8,6.8,9.8C6.5,9.9,6.2,9.9,5.9,9.9C5.4,9.9,5,9.8,4.6,9.7C4.3,9.5,4,9.3,3.7,9C3.4,8.7,3.2,8.3,3.1,7.9
				c-0.2-0.4-0.2-1-0.2-1.5c0-0.5,0.1-1,0.2-1.4c0.1-0.4,0.3-0.8,0.6-1.1c0.3-0.3,0.6-0.5,0.9-0.7C4.9,3,5.3,2.9,5.8,2.9
				c0.2,0,0.5,0,0.7,0C6.6,3,6.8,3,7,3c0.2,0.1,0.4,0.1,0.5,0.2c0.2,0.1,0.4,0.2,0.6,0.3C8.4,3.8,8.7,3.8,9,3.6
				c0.1-0.1,0.2-0.2,0.3-0.3l0.4-0.6c0.2-0.4,0.2-0.9-0.2-1.2C9.4,1.5,9.3,1.5,9.2,1.4C8.9,1.2,8.6,1.1,8.3,1
				C7.9,0.8,7.6,0.7,7.2,0.6C6.8,0.6,6.3,0.5,5.9,0.5C5,0.5,4.2,0.7,3.4,0.9C2.7,1.2,2.1,1.6,1.6,2.1C1.1,2.7,0.7,3.3,0.4,4
				C0.1,4.7,0,5.5,0,6.3c0,0.8,0.1,1.6,0.4,2.3c0.3,0.7,0.7,1.3,1.2,1.8c0.5,0.5,1.1,0.9,1.8,1.2c0.7,0.3,1.4,0.4,2.3,0.4
				c0.4,0,0.9,0,1.3-0.1C7.3,12,7.7,12,8,11.9c0.3-0.1,0.7-0.2,1-0.4c0.3-0.2,0.6-0.3,0.9-0.6l0,0V6.5C10,6.2,9.7,6,9.5,6"/>
		</g>
	</g>
</g>
</svg>
