<svg width="205" height="53" viewBox="0 0 205 53" fill="none" xmlns="http://www.w3.org/2000/svg">
<path d="M81.8701 25.9624C82.2759 25.9624 82.6057 26.294 82.6057 26.701V33.6587L82.5289 33.7157C82.0744 34.0494 81.5939 34.3409 81.1015 34.5824C80.6083 34.8232 80.0764 35.0246 79.5205 35.1788C78.966 35.3336 78.3672 35.4491 77.7394 35.5223C77.1138 35.5949 76.4339 35.6315 75.7188 35.6315C74.4197 35.6315 73.2001 35.3977 72.0933 34.9366C70.9872 34.4754 70.0156 33.829 69.2054 33.0158C68.3952 32.2026 67.7513 31.2254 67.2919 30.1108C66.8326 28.997 66.5994 27.7705 66.5994 26.4658C66.5994 25.1387 66.822 23.9009 67.2609 22.7878C67.7006 21.6718 68.3389 20.6953 69.1589 19.8849C69.9776 19.0752 70.9809 18.4366 72.1398 17.9874C73.2974 17.5396 74.6064 17.3122 76.0309 17.3122C76.7665 17.3122 77.4689 17.3741 78.1185 17.4959C78.7674 17.6185 79.3747 17.7881 79.9221 17.9994C80.4709 18.212 80.9817 18.469 81.4389 18.764C81.5531 18.8372 81.67 18.9175 81.7877 18.9998C82.3767 19.4202 82.5246 20.2285 82.1245 20.8396L81.5186 21.7633C81.391 21.9555 81.236 22.1083 81.0578 22.2189C80.6351 22.4794 80.1186 22.4449 79.6036 22.121C79.2929 21.9344 78.9935 21.769 78.7138 21.631C78.4397 21.4951 78.1565 21.3838 77.8733 21.2994C77.5887 21.2142 77.2843 21.1515 76.968 21.1128C76.6481 21.074 76.2846 21.0536 75.8865 21.0536C75.1566 21.0536 74.4922 21.1846 73.911 21.4416C73.3312 21.6979 72.8303 22.0647 72.4223 22.5315C72.013 23.0004 71.6924 23.5721 71.4698 24.2318C71.2451 24.8958 71.1309 25.647 71.1309 26.4658C71.1309 27.3713 71.257 28.1852 71.5043 28.8836C71.7509 29.58 72.0954 30.1742 72.528 30.6509C72.9599 31.1261 73.4784 31.4929 74.0695 31.7422C74.6634 31.9921 75.3236 32.1188 76.0309 32.1188C76.5748 32.1188 77.0617 32.0717 77.4788 31.9787C77.855 31.895 78.2164 31.7844 78.5539 31.6506V29.3068H77.0152C76.7101 29.3068 76.4642 29.2202 76.2853 29.0498C76.1021 28.8773 76.0098 28.6562 76.0098 28.3936V26.8876C76.0098 26.3771 76.4234 25.9624 76.9313 25.9624H81.8701ZM94.7595 23.9336C95.2682 24.4399 95.6704 25.0679 95.9544 25.8008C96.2376 26.5296 96.3813 27.3653 96.3813 28.2855C96.3813 28.5749 96.3686 28.815 96.344 28.998C96.3158 29.2036 96.2644 29.3656 96.1855 29.4937C96.0988 29.6345 95.9797 29.7338 95.8318 29.7887C95.7021 29.8373 95.545 29.8612 95.352 29.8612H88.3905C88.5215 30.7448 88.8104 31.3975 89.25 31.801C89.7242 32.2361 90.3477 32.4565 91.103 32.4565C91.513 32.4565 91.8681 32.4065 92.1598 32.3093C92.4599 32.2093 92.7304 32.0953 92.965 31.972C93.2102 31.8432 93.435 31.7263 93.6393 31.6214C93.8704 31.5038 94.1155 31.444 94.3678 31.444C94.7278 31.444 95.0061 31.5806 95.1949 31.8502L95.936 32.7669C96.1918 33.0838 96.1664 33.5499 95.879 33.828C95.5944 34.1033 95.2914 34.3413 94.9779 34.537C94.5228 34.8207 94.0486 35.046 93.5695 35.2066C93.0926 35.3657 92.6085 35.4783 92.1295 35.5403C91.6553 35.6008 91.1974 35.6318 90.7669 35.6318C89.8764 35.6318 89.0281 35.484 88.2468 35.1918C87.4605 34.8989 86.7637 34.4574 86.1754 33.8787C85.5872 33.3006 85.1158 32.5733 84.7755 31.7172C84.436 30.8631 84.2641 29.8591 84.2641 28.7312C84.2641 27.8757 84.412 27.0541 84.7023 26.2895C84.9939 25.5227 85.4188 24.8412 85.9662 24.2624C86.5136 23.6844 87.185 23.2197 87.9607 22.8818C88.7371 22.5438 89.6255 22.372 90.5985 22.372C91.4418 22.372 92.2253 22.5058 92.9277 22.7698C93.6343 23.0352 94.2508 23.4267 94.7595 23.9336ZM105.599 32.4833L106.454 33.8253C106.541 33.9619 106.591 34.1231 106.574 34.2844C106.553 34.5026 106.436 34.6892 106.255 34.799C105.871 35.0321 105.45 35.218 105.002 35.3524C104.388 35.5376 103.744 35.632 103.088 35.632C102.475 35.632 101.926 35.5404 101.454 35.3602C100.978 35.1785 100.57 34.9159 100.245 34.5808C99.9187 34.2449 99.6686 33.8345 99.5002 33.3613C99.3332 32.8938 99.2494 32.3651 99.2494 31.7912V25.5236H98.3821C98.1426 25.5236 97.934 25.444 97.7621 25.287C97.586 25.1265 97.4972 24.8941 97.4972 24.5984V23.6859C97.4972 23.2783 97.7847 22.9277 98.1841 22.8502L99.5108 22.5918L100.215 19.6629C100.297 19.332 100.537 18.9391 101.215 18.9391H102.505C102.971 18.9391 103.349 19.3179 103.349 19.7854V22.589H105.74C106.09 22.589 106.374 22.8742 106.374 23.2248V24.6569C106.374 25.1356 105.987 25.5236 105.51 25.5236H103.349V31.5385C103.349 31.7842 103.407 31.987 103.521 32.1412C103.625 32.2799 103.773 32.3482 103.975 32.3482C104.092 32.3482 104.189 32.3369 104.262 32.3137C104.342 32.2897 104.412 32.2623 104.469 32.2313C104.54 32.1933 104.607 32.1609 104.669 32.1306C104.755 32.0905 104.853 32.0708 104.96 32.0708C105.114 32.0708 105.244 32.1102 105.345 32.1876C105.432 32.2552 105.516 32.3517 105.599 32.4833ZM124.411 17.505C124.71 17.505 124.953 17.7493 124.953 18.0492V34.7217C124.953 35.1174 124.632 35.4391 124.239 35.4391H122.651C122.314 35.4391 122.021 35.3849 121.782 35.2786C121.537 35.1688 121.303 34.9716 121.085 34.6914L113.712 24.7513C113.717 24.8358 113.722 24.9203 113.726 25.0033C113.743 25.2983 113.752 25.5793 113.752 25.8391V34.6801C113.752 35.0983 113.412 35.4391 112.996 35.4391H110.447C110.087 35.4391 109.796 35.1455 109.796 34.7843V18.252C109.796 17.8401 110.13 17.505 110.54 17.505H112.121C112.305 17.505 112.462 17.5134 112.591 17.531C112.729 17.5493 112.855 17.5845 112.968 17.6366C113.081 17.6887 113.191 17.7626 113.293 17.8556C113.388 17.9422 113.495 18.0584 113.612 18.2006L121.04 28.2181C121.033 28.1076 121.027 27.9985 121.021 27.8915C121.006 27.5718 120.997 27.2669 120.997 26.9839V18.0689C120.997 17.7577 121.249 17.505 121.559 17.505H124.411ZM131.386 22.5648C131.679 22.5648 131.919 22.8049 131.919 23.0999V34.9037C131.919 35.1987 131.679 35.4395 131.386 35.4395H128.353C128.058 35.4395 127.819 35.1987 127.819 34.9037V23.0999C127.819 22.8049 128.058 22.5648 128.353 22.5648H131.386ZM145.137 23.7818C145.512 24.2211 145.798 24.7499 145.99 25.354C146.179 25.9524 146.275 26.61 146.275 27.3092V34.5562C146.275 35.0434 145.88 35.4391 145.395 35.4391H142.889C142.495 35.4391 142.175 35.1181 142.175 34.7231V27.3092C142.175 26.7473 142.048 26.3073 141.798 26.0024C141.554 25.7046 141.197 25.5596 140.708 25.5596C140.331 25.5596 139.971 25.6426 139.639 25.806C139.32 25.9623 139.008 26.1728 138.713 26.4312V34.6097C138.713 35.0667 138.342 35.4391 137.887 35.4391H135.318C134.93 35.4391 134.613 35.1216 134.613 34.7308V23.2685C134.613 22.8806 134.927 22.5651 135.314 22.5651H137.107C137.376 22.5651 137.607 22.6285 137.794 22.7538C137.987 22.882 138.123 23.0749 138.201 23.3255L138.33 23.7614C138.506 23.6072 138.686 23.4607 138.866 23.3262C139.131 23.1256 139.42 22.9545 139.723 22.8165C140.026 22.6799 140.357 22.5701 140.708 22.4912C141.061 22.4124 141.449 22.3722 141.86 22.3722C142.564 22.3722 143.198 22.4975 143.745 22.744C144.292 22.9918 144.761 23.341 145.137 23.7818ZM152.501 22.5648C152.776 22.5648 153 22.7901 153 23.0668V36.0091C153 36.6103 152.923 37.1856 152.771 37.7179C152.616 38.2614 152.356 38.7437 151.999 39.1528C151.64 39.5625 151.164 39.8899 150.583 40.1251C150.006 40.3581 149.286 40.4757 148.442 40.4757C148.13 40.4757 147.837 40.4574 147.57 40.4201C147.382 40.394 147.189 40.3588 146.994 40.3145C146.762 40.2631 146.597 40.0413 146.612 39.7998L146.716 38.0938C146.738 37.8692 146.817 37.6988 146.952 37.5855C147.086 37.4735 147.308 37.4214 147.65 37.4214C147.921 37.4214 148.142 37.3989 148.309 37.3546C148.458 37.3158 148.571 37.2518 148.655 37.1588C148.74 37.0638 148.802 36.9286 148.839 36.7582C148.879 36.566 148.901 36.3139 148.901 36.0091V23.0907C148.901 22.8006 149.136 22.5648 149.424 22.5648H152.501ZM164.895 23.7736C165.331 24.2284 165.67 24.7755 165.903 25.3993C166.134 26.0203 166.251 26.7075 166.251 27.4418V34.805C166.251 35.155 165.967 35.4394 165.62 35.4394H164.357C163.969 35.4394 163.679 35.3845 163.469 35.2718C163.247 35.1528 163.07 34.924 162.932 34.5713L162.763 34.1305C162.519 34.3298 162.281 34.5107 162.052 34.6698C161.757 34.8761 161.446 35.0543 161.129 35.1993C160.809 35.3451 160.464 35.4549 160.102 35.526C159.742 35.5957 159.341 35.6316 158.907 35.6316C158.323 35.6316 157.782 35.5535 157.302 35.3993C156.815 35.2423 156.394 35.0078 156.051 34.7008C155.707 34.3931 155.438 34.0059 155.252 33.5497C155.067 33.0977 154.973 32.571 154.973 31.9845C154.973 31.5149 155.093 31.0277 155.328 30.5362C155.566 30.0413 155.979 29.5871 156.556 29.1872C157.123 28.7944 157.893 28.462 158.845 28.1987C159.752 27.9495 160.896 27.8178 162.247 27.8065V27.4608C162.247 26.7758 162.112 26.2808 161.847 25.9907C161.582 25.7007 161.209 25.5598 160.708 25.5598C160.291 25.5598 159.948 25.6049 159.689 25.6936C159.421 25.7866 159.179 25.8915 158.969 26.0062C158.745 26.1294 158.525 26.2407 158.315 26.3371C158.082 26.4449 157.805 26.4991 157.492 26.4991C157.197 26.4991 156.941 26.4251 156.73 26.2794C156.526 26.1386 156.363 25.9612 156.246 25.7521L155.755 24.8987C155.604 24.6354 155.664 24.296 155.895 24.108C156.589 23.5469 157.357 23.1146 158.178 22.8224C159.111 22.4922 160.123 22.3239 161.189 22.3239C161.961 22.3239 162.67 22.4521 163.294 22.7055C163.92 22.9597 164.459 23.3188 164.895 23.7736ZM177.712 29.8087C177.887 30.1938 177.975 30.6585 177.975 31.1887C177.975 31.8301 177.857 32.4314 177.623 32.9749C177.388 33.522 177.034 33.9994 176.569 34.3943C176.108 34.7858 175.533 35.0942 174.861 35.3096C174.192 35.5237 173.415 35.6321 172.552 35.6321C172.119 35.6321 171.679 35.5899 171.245 35.5082C170.812 35.4265 170.389 35.3146 169.988 35.1759C169.584 35.0365 169.203 34.8675 168.859 34.6739C168.65 34.557 168.457 34.4324 168.284 34.3042C168.025 34.1127 167.958 33.748 168.131 33.4734L168.791 32.4243C168.91 32.2399 169.055 32.0927 169.222 31.9864C169.396 31.8745 169.62 31.8181 169.887 31.8181C170.135 31.8181 170.362 31.8745 170.562 31.9864L171.12 32.2997C171.31 32.406 171.536 32.5074 171.794 32.5997C172.04 32.6884 172.359 32.7334 172.744 32.7334C173.013 32.7334 173.24 32.7053 173.423 32.6511C173.596 32.5983 173.733 32.5285 173.833 32.4427C173.93 32.3575 174.002 32.2624 174.047 32.1603C174.092 32.0561 174.115 31.9484 174.115 31.8393C174.115 31.6428 174.052 31.4872 173.921 31.3626C173.771 31.2183 173.568 31.0908 173.318 30.9838C173.053 30.8712 172.747 30.7641 172.41 30.667C172.06 30.5656 171.699 30.4494 171.337 30.3199C170.972 30.1896 170.606 30.0305 170.251 29.846C169.887 29.6566 169.557 29.4137 169.272 29.1236C168.985 28.8301 168.749 28.4675 168.573 28.0457C168.396 27.6233 168.306 27.1079 168.306 26.5144C168.306 25.961 168.414 25.4266 168.627 24.9267C168.842 24.4254 169.167 23.979 169.594 23.6009C170.019 23.2242 170.557 22.9222 171.194 22.7018C171.828 22.4828 172.575 22.3723 173.416 22.3723C173.873 22.3723 174.323 22.4138 174.754 22.4962C175.184 22.5779 175.593 22.6948 175.97 22.8433C176.348 22.9919 176.699 23.17 177.012 23.3721C177.191 23.4882 177.361 23.6129 177.517 23.7417C177.778 23.9579 177.835 24.3388 177.65 24.6281L177.033 25.5927C176.921 25.7701 176.797 25.9004 176.663 25.9793C176.387 26.144 175.939 26.1412 175.55 25.9722L174.98 25.7251C174.784 25.6406 174.559 25.5596 174.31 25.4857C174.073 25.4153 173.796 25.3787 173.488 25.3787C173.059 25.3787 172.73 25.4582 172.512 25.6145C172.311 25.7589 172.213 25.9546 172.213 26.213C172.213 26.3918 172.274 26.5362 172.399 26.6516C172.546 26.7889 172.748 26.9129 172.999 27.0199C173.263 27.1332 173.568 27.2424 173.903 27.3438C174.25 27.4494 174.608 27.5676 174.968 27.6965C175.334 27.8267 175.696 27.9823 176.046 28.157C176.405 28.3372 176.73 28.5625 177.014 28.8265C177.302 29.0948 177.538 29.4257 177.712 29.8087ZM129.889 20.4632C127.831 20.4632 127.831 20.4632 127.831 18.5685C127.831 17.4272 128.752 16.5021 129.889 16.5021C131.026 16.5021 131.949 17.4272 131.949 18.5685C131.949 20.4632 131.949 20.4632 129.889 20.4632ZM150.994 20.4632C148.935 20.4632 148.935 20.4632 148.935 18.5685C148.935 17.4272 149.857 16.5021 150.994 16.5021C152.131 16.5021 153.053 17.4272 153.053 18.5685C153.053 20.4632 153.053 20.4632 150.994 20.4632ZM88.8039 27.3175H93.027C93.0136 27.1041 92.9797 26.8927 92.9247 26.6899C92.8557 26.4348 92.7415 26.2038 92.5857 26.0037C92.4327 25.8072 92.2262 25.6445 91.9738 25.5212C91.7215 25.3979 91.4057 25.3359 91.0363 25.3359C90.3793 25.3359 89.8633 25.5219 89.5017 25.8882C89.1711 26.2228 88.9357 26.7039 88.8039 27.3175ZM159.949 30.8755C159.702 31.0044 159.532 31.1474 159.443 31.301C159.351 31.4595 159.307 31.6264 159.307 31.8131C159.307 32.1773 159.398 32.4309 159.579 32.5661C159.776 32.7148 160.081 32.7902 160.486 32.7902C160.936 32.7902 161.333 32.7106 161.667 32.5549C161.987 32.4048 162.318 32.1604 162.65 31.8293V30.3873C162.007 30.395 161.465 30.4422 161.04 30.5282C160.579 30.6219 160.212 30.7388 159.949 30.8755Z" fill="black"/>
<path fill-rule="evenodd" clip-rule="evenodd" d="M30.0327 37.5746H45.0937C47.1645 37.5746 48.859 35.8784 48.859 33.8052V18.7279C48.859 16.6549 47.1645 14.9586 45.0937 14.9586H30.0327C27.9617 14.9586 26.2673 16.6549 26.2673 18.7279V26.0024C26.5288 26.1433 26.7672 26.3372 26.9658 26.5825L29.9777 30.3019C30.7811 31.2939 30.6281 32.7494 29.636 33.5527L29.4522 33.7016C28.4867 34.4834 27.0824 34.3595 26.2673 33.4379V33.8052C26.2673 35.8784 27.9617 37.5746 30.0327 37.5746Z" fill="black"/>
<path fill-rule="evenodd" clip-rule="evenodd" d="M30.8172 15.0695C32.272 15.9919 29.4211 18.191 27.699 18.191C25.9769 18.191 23.4827 13.3971 23.4827 11.6731C23.4827 9.94921 28.7777 13.7766 30.8172 15.0695" fill="black"/>
<path fill-rule="evenodd" clip-rule="evenodd" d="M27.2237 19.0666C26.4523 19.8104 23.797 19.2893 23.2441 18.7145C22.6911 18.1396 26.2911 17.1287 27.6195 16.679" fill="black"/>
<rect width="9.40869" height="4.85927" rx="2.42964" transform="matrix(-0.62932 -0.777146 -0.777146 0.62932 32.2625 32.2256)" fill="black"/>
<path fill-rule="evenodd" clip-rule="evenodd" d="M42.8722 28.0821H32.2615C30.1917 28.0821 28.498 26.3814 28.498 24.3027V23.7252C28.498 21.6465 30.1917 19.9457 32.2615 19.9457H42.8722C44.9422 19.9457 46.6356 21.6465 46.6356 23.7252V24.3027C46.6356 26.3814 44.9422 28.0821 42.8722 28.0821" fill="white"/>
<path fill-rule="evenodd" clip-rule="evenodd" d="M33.753 25.8219C35.561 25.8219 35.561 25.8219 35.561 24.1194C35.561 23.0937 34.7514 22.2622 33.753 22.2622C32.7544 22.2622 31.9448 23.0937 31.9448 24.1194C31.9448 25.8219 31.9448 25.8219 33.753 25.8219" fill="black"/>
<path fill-rule="evenodd" clip-rule="evenodd" d="M35.787 23.6183C35.787 23.9929 35.4833 24.2964 35.1088 24.2964C34.7346 24.2964 34.4309 23.9929 34.4309 23.6183C34.4309 23.2441 34.7346 22.9403 35.1088 22.9403C35.4833 22.9403 35.787 23.2441 35.787 23.6183" fill="white"/>
<path fill-rule="evenodd" clip-rule="evenodd" d="M41.4373 25.8219C43.2454 25.8219 43.2454 25.8219 43.2454 24.1194C43.2454 23.0937 42.4359 22.2622 41.4373 22.2622C40.4386 22.2622 39.6292 23.0937 39.6292 24.1194C39.6292 25.8219 39.6292 25.8219 41.4373 25.8219" fill="black"/>
<path fill-rule="evenodd" clip-rule="evenodd" d="M43.528 23.6183C43.528 23.9929 43.2244 24.2964 42.85 24.2964C42.4754 24.2964 42.1719 23.9929 42.1719 23.6183C42.1719 23.2441 42.4754 22.9403 42.85 22.9403C43.2244 22.9403 43.528 23.2441 43.528 23.6183" fill="white"/>
<path d="M41.943 32.0024C41.6398 32.0464 41.3877 32.2585 41.2925 32.5497C41.1972 32.841 41.2753 33.161 41.494 33.3757L43.806 35.6456L43.2572 38.8439C43.2053 39.1463 43.3296 39.452 43.5778 39.6324C43.8259 39.8128 44.155 39.8368 44.4267 39.6941L47.3004 38.1854L50.1646 39.6903C50.436 39.8329 50.7647 39.8093 51.0129 39.6294C51.2611 39.4494 51.3858 39.1443 51.3346 38.842L50.7942 35.6489L53.1154 33.4046C53.3358 33.1914 53.4163 32.8717 53.323 32.5796C53.2297 32.2876 52.9788 32.0737 52.6757 32.0277L49.4613 31.5408L48.0237 28.6291C47.8879 28.354 47.6077 28.1798 47.3008 28.1798C46.994 28.1798 46.7137 28.3539 46.5778 28.629L45.1406 31.5383L41.943 32.0024ZM44.055 35.8902C44.0543 35.8894 44.0534 35.8886 44.0524 35.8876L44.055 35.8902L44.055 35.8902Z" fill="#FFEA52" stroke="black" stroke-width="1.61258" stroke-linecap="round" stroke-linejoin="round"/>
</svg>
