<svg width="39" height="37" viewBox="0 0 39 37" fill="none" xmlns="http://www.w3.org/2000/svg">
<path fill-rule="evenodd" clip-rule="evenodd" d="M24.8643 20.9259H11.7806C9.22837 20.9259 7.14001 18.8287 7.14001 16.2656V15.5535C7.14001 12.9903 9.22837 10.8931 11.7806 10.8931H24.8643C27.4167 10.8931 29.5048 12.9903 29.5048 15.5535V16.2656C29.5048 18.8287 27.4167 20.9259 24.8643 20.9259Z" fill="white"/>
<path d="M15.5869 17.8616C15.3139 18.1401 14.7568 18.1401 13.6197 18.1401C12.4826 18.1401 11.9254 18.1401 11.6524 17.8616C11.3901 17.594 11.3901 17.0694 11.3901 16.0407C11.3901 14.776 12.3884 13.7507 13.6197 13.7507C14.3142 13.7507 14.9346 14.077 15.3435 14.5884C15.3263 14.5874 15.3091 14.5868 15.2917 14.5868C14.8302 14.5868 14.4558 14.9614 14.4558 15.4229C14.4558 15.8848 14.8302 16.259 15.2917 16.259C15.5058 16.259 15.7012 16.1785 15.8492 16.0461C15.8492 17.0712 15.8487 17.5945 15.5869 17.8616Z" fill="black"/>
<path d="M25.0622 17.8616C24.7892 18.1401 24.232 18.1401 23.0949 18.1401C21.9578 18.1401 21.4006 18.1401 21.1276 17.8616C20.8654 17.594 20.8654 17.0694 20.8654 16.0407C20.8654 14.776 21.8636 13.7507 23.0949 13.7507C23.7889 13.7507 24.4088 14.0764 24.8177 14.5871C24.3645 14.5972 24.0005 14.9677 24.0005 15.4229C24.0005 15.8848 24.3748 16.259 24.8367 16.259C25.0187 16.259 25.1871 16.2008 25.3244 16.102C25.3243 17.0903 25.3192 17.5994 25.0622 17.8616Z" fill="black"/>
<path fill-rule="evenodd" clip-rule="evenodd" d="M9.7855 4.74398C9.43506 4.51807 9.023 4.24498 8.57174 3.94591C8.208 3.70485 7.82181 3.44433 7.42415 3.17607C4.58258 1.25916 1.15575 -1.05258 1.15575 0.521636C1.15575 2.0313 2.50701 5.62172 4.16676 7.47663C2.31181 8.08419 0.173066 8.86774 0.661454 9.37541C1.15953 9.89316 3.04078 10.3756 4.38947 10.2406V18.258C3.61523 18.1665 2.80623 18.3755 2.15248 18.9049C0.866621 19.9462 0.668342 21.8327 1.70961 23.1186L5.23994 27.4782C5.64832 27.9825 6.18673 28.3195 6.76792 28.4801C5.89681 28.5544 5.00631 28.2275 4.38947 27.5301V27.9831C4.38947 30.5394 6.47872 32.6311 9.03238 32.6311H24.5993L24.3594 34.0292C24.2314 34.775 24.5379 35.5288 25.1499 35.9738C25.7619 36.4187 26.5735 36.4778 27.2435 36.126L30.3246 34.5084L33.3941 36.1212C34.0634 36.4728 34.8741 36.4145 35.4862 35.9708C36.0982 35.527 36.4057 34.7745 36.2795 34.0291L35.7005 30.6083L38.1861 28.205C38.7297 27.6794 38.9282 26.891 38.6981 26.1706C38.4681 25.4503 37.8494 24.9228 37.1018 24.8096L33.6511 24.2869L32.2465 21.442V9.39176C32.2465 6.83561 30.1571 4.74398 27.6036 4.74398H9.7855ZM24.8644 20.9261H11.7807C9.22848 20.9261 7.14013 18.8289 7.14013 16.2658V15.5537C7.14013 12.9906 9.22848 10.8933 11.7807 10.8933H24.8644C27.4168 10.8933 29.5049 12.9906 29.5049 15.5537V16.2658C29.5049 18.8289 27.4168 20.9261 24.8644 20.9261Z" fill="black"/>
<path fill-rule="evenodd" clip-rule="evenodd" d="M23.8612 26.745L28.2188 26.1126C28.2935 26.1029 28.3328 26.0746 28.3657 26.0075L30.3248 22.0417L32.2793 26.0004C32.3131 26.0692 32.3513 26.1017 32.4312 26.113L36.8036 26.7753L33.6476 29.8268C33.5916 29.8813 33.5681 29.9292 33.5827 30.0125L34.3186 34.3607L30.4304 32.3178C30.3519 32.2763 30.2939 32.278 30.2156 32.3194L26.3188 34.3652L27.0692 29.9916C27.084 29.925 27.0629 29.888 27.0192 29.8455L23.8612 26.745Z" fill="#FFEA52"/>
</svg>
